<?xml version="1.0" standalone="no"?><!DOCTYPE svg PUBLIC "-//W3C//DTD SVG 1.1//EN" "http://www.w3.org/Graphics/SVG/1.1/DTD/svg11.dtd"><svg t="1720143038503" class="icon" viewBox="0 0 1024 1024" version="1.1" xmlns="http://www.w3.org/2000/svg" p-id="4247" xmlns:xlink="http://www.w3.org/1999/xlink" width="16" height="16"><path d="M784.192 224h32a16 16 0 0 1 16 16v432a64 64 0 0 1-64 64H305.92l25.472 25.472a16 16 0 0 1 0 22.656l-22.656 22.592a16 16 0 0 1-22.592 0l-90.56-90.496a16 16 0 0 1 0-22.656l90.56-90.496a16 16 0 0 1 22.592 0l22.656 22.656a16 16 0 0 1 0 22.592l-23.68 23.68h460.416V240a16 16 0 0 1 16-16z" p-id="4248"></path></svg>